<mxfile host="app.diagrams.net" agent="Mozilla/5.0 (X11; Linux x86_64; rv:132.0) Gecko/20100101 Firefox/132.0" version="24.8.9">
  <diagram id="6a731a19-8d31-9384-78a2-239565b7b9f0" name="Page-1">
    <mxGraphModel dx="1602" dy="1034" grid="1" gridSize="10" guides="1" tooltips="1" connect="1" arrows="1" fold="1" page="1" pageScale="1" pageWidth="1169" pageHeight="827" background="none" math="0" shadow="0">
      <root>
        <mxCell id="0" />
        <mxCell id="1" parent="0" />
        <mxCell id="ZTlJS3qnJd74X5BMQNH_-5" style="rounded=1;orthogonalLoop=1;jettySize=auto;html=1;exitX=0;exitY=1;exitDx=0;exitDy=0;entryX=1.007;entryY=0.054;entryDx=0;entryDy=0;entryPerimeter=0;strokeWidth=2;" edge="1" parent="1" source="2F0ZHAKEK8wXsF_SbkVZ-1780" target="_siu0kcWxK-6dg5J5kOe-8">
          <mxGeometry relative="1" as="geometry" />
        </mxCell>
        <mxCell id="ZTlJS3qnJd74X5BMQNH_-6" style="rounded=1;orthogonalLoop=1;jettySize=auto;html=1;exitX=0.5;exitY=1;exitDx=0;exitDy=0;entryX=0.5;entryY=0;entryDx=0;entryDy=0;strokeWidth=2;" edge="1" parent="1" source="2F0ZHAKEK8wXsF_SbkVZ-1780" target="_siu0kcWxK-6dg5J5kOe-1">
          <mxGeometry relative="1" as="geometry" />
        </mxCell>
        <mxCell id="ZTlJS3qnJd74X5BMQNH_-11" style="rounded=1;orthogonalLoop=1;jettySize=auto;html=1;exitX=0.5;exitY=0;exitDx=0;exitDy=0;entryX=0.5;entryY=1;entryDx=0;entryDy=0;strokeWidth=2;" edge="1" parent="1" source="2F0ZHAKEK8wXsF_SbkVZ-1780" target="ZTlJS3qnJd74X5BMQNH_-7">
          <mxGeometry relative="1" as="geometry" />
        </mxCell>
        <mxCell id="ZTlJS3qnJd74X5BMQNH_-18" style="rounded=1;orthogonalLoop=1;jettySize=auto;html=1;exitX=1;exitY=0;exitDx=0;exitDy=0;entryX=0;entryY=1;entryDx=0;entryDy=0;strokeWidth=2;" edge="1" parent="1" source="2F0ZHAKEK8wXsF_SbkVZ-1780" target="ZTlJS3qnJd74X5BMQNH_-12">
          <mxGeometry relative="1" as="geometry" />
        </mxCell>
        <mxCell id="ZTlJS3qnJd74X5BMQNH_-19" style="rounded=1;orthogonalLoop=1;jettySize=auto;html=1;exitX=1;exitY=1;exitDx=0;exitDy=0;entryX=0.003;entryY=0.143;entryDx=0;entryDy=0;entryPerimeter=0;strokeWidth=2;" edge="1" parent="1" source="2F0ZHAKEK8wXsF_SbkVZ-1780" target="ZTlJS3qnJd74X5BMQNH_-16">
          <mxGeometry relative="1" as="geometry" />
        </mxCell>
        <mxCell id="2F0ZHAKEK8wXsF_SbkVZ-1780" value="Platform" style="rounded=1;whiteSpace=wrap;html=1;fillColor=#bac8d3;strokeColor=#23445d;strokeWidth=3;fontStyle=1;fontSize=12;" parent="1" vertex="1">
          <mxGeometry x="500" y="300" width="120" height="34" as="geometry" />
        </mxCell>
        <mxCell id="ZTlJS3qnJd74X5BMQNH_-2" value="" style="group" vertex="1" connectable="0" parent="1">
          <mxGeometry x="70" y="380" width="300" height="196" as="geometry" />
        </mxCell>
        <mxCell id="_siu0kcWxK-6dg5J5kOe-8" value="" style="rounded=1;whiteSpace=wrap;html=1;arcSize=7;fillColor=#f5f5f5;fontColor=#333333;strokeColor=#666666;strokeWidth=2;dashed=1;" parent="ZTlJS3qnJd74X5BMQNH_-2" vertex="1">
          <mxGeometry y="10" width="300" height="186" as="geometry" />
        </mxCell>
        <mxCell id="_siu0kcWxK-6dg5J5kOe-10" value="Compute &amp;amp; Networks" style="rounded=1;whiteSpace=wrap;html=1;fontStyle=1;fillColor=#f5f5f5;fontColor=#333333;strokeColor=#666666;strokeWidth=1;" parent="ZTlJS3qnJd74X5BMQNH_-2" vertex="1">
          <mxGeometry x="10" width="140" height="21.87" as="geometry" />
        </mxCell>
        <mxCell id="_siu0kcWxK-6dg5J5kOe-11" value="Network" style="rounded=1;whiteSpace=wrap;html=1;fillColor=#bac8d3;strokeColor=#23445d;strokeWidth=3;fontStyle=1;fontSize=12;" parent="ZTlJS3qnJd74X5BMQNH_-2" vertex="1">
          <mxGeometry x="10" y="40" width="120" height="34" as="geometry" />
        </mxCell>
        <mxCell id="_siu0kcWxK-6dg5J5kOe-12" value="Cluster" style="rounded=1;whiteSpace=wrap;html=1;fillColor=#bac8d3;strokeColor=#23445d;strokeWidth=3;fontStyle=1;fontSize=12;" parent="ZTlJS3qnJd74X5BMQNH_-2" vertex="1">
          <mxGeometry x="10" y="90" width="120" height="34" as="geometry" />
        </mxCell>
        <mxCell id="_siu0kcWxK-6dg5J5kOe-13" value="Server" style="rounded=1;whiteSpace=wrap;html=1;fillColor=#bac8d3;strokeColor=#23445d;strokeWidth=3;fontStyle=1;fontSize=12;" parent="ZTlJS3qnJd74X5BMQNH_-2" vertex="1">
          <mxGeometry x="10" y="140" width="120" height="34" as="geometry" />
        </mxCell>
        <mxCell id="_siu0kcWxK-6dg5J5kOe-14" value="Image" style="rounded=1;whiteSpace=wrap;html=1;fillColor=#bac8d3;strokeColor=#23445d;strokeWidth=3;fontStyle=1;fontSize=12;" parent="ZTlJS3qnJd74X5BMQNH_-2" vertex="1">
          <mxGeometry x="150" y="40" width="120" height="34" as="geometry" />
        </mxCell>
        <mxCell id="_siu0kcWxK-6dg5J5kOe-15" value="SoftwareGroup" style="rounded=1;whiteSpace=wrap;html=1;fillColor=#bac8d3;strokeColor=#23445d;strokeWidth=3;fontStyle=1;fontSize=12;" parent="ZTlJS3qnJd74X5BMQNH_-2" vertex="1">
          <mxGeometry x="150" y="90" width="120" height="34" as="geometry" />
        </mxCell>
        <mxCell id="_siu0kcWxK-6dg5J5kOe-16" value="SoftwarePackage" style="rounded=1;whiteSpace=wrap;html=1;fillColor=#bac8d3;strokeColor=#23445d;strokeWidth=3;fontStyle=1;fontSize=12;" parent="ZTlJS3qnJd74X5BMQNH_-2" vertex="1">
          <mxGeometry x="150" y="140" width="120" height="34" as="geometry" />
        </mxCell>
        <mxCell id="ZTlJS3qnJd74X5BMQNH_-3" value="" style="group;movable=1;resizable=1;rotatable=1;deletable=1;editable=1;locked=0;connectable=1;" vertex="1" connectable="0" parent="1">
          <mxGeometry x="70" y="170" width="300" height="100" as="geometry" />
        </mxCell>
        <mxCell id="_siu0kcWxK-6dg5J5kOe-18" value="" style="rounded=1;whiteSpace=wrap;html=1;arcSize=7;fillColor=#f5f5f5;fontColor=#333333;strokeColor=#666666;strokeWidth=2;dashed=1;movable=1;resizable=1;rotatable=1;deletable=1;editable=1;locked=0;connectable=1;" parent="ZTlJS3qnJd74X5BMQNH_-3" vertex="1">
          <mxGeometry y="5.465000000000003" width="300" height="94.535" as="geometry" />
        </mxCell>
        <mxCell id="_siu0kcWxK-6dg5J5kOe-19" value="Policies" style="rounded=1;whiteSpace=wrap;html=1;fontStyle=1;fillColor=#f5f5f5;fontColor=#333333;strokeColor=#666666;strokeWidth=1;movable=0;resizable=0;rotatable=0;deletable=0;editable=0;locked=1;connectable=0;" parent="ZTlJS3qnJd74X5BMQNH_-3" vertex="1">
          <mxGeometry x="20.00411764705882" width="85.73529411764707" height="21.866666666666667" as="geometry" />
        </mxCell>
        <mxCell id="_siu0kcWxK-6dg5J5kOe-20" value="Policy" style="rounded=1;whiteSpace=wrap;html=1;fillColor=#bac8d3;strokeColor=#23445d;strokeWidth=3;fontStyle=1;fontSize=12;movable=1;resizable=1;rotatable=1;deletable=1;editable=1;locked=0;connectable=1;" parent="ZTlJS3qnJd74X5BMQNH_-3" vertex="1">
          <mxGeometry x="10" y="40" width="120" height="34" as="geometry" />
        </mxCell>
        <mxCell id="ZTlJS3qnJd74X5BMQNH_-4" style="rounded=1;orthogonalLoop=1;jettySize=auto;html=1;exitX=0;exitY=0;exitDx=0;exitDy=0;entryX=1;entryY=1;entryDx=0;entryDy=0;strokeWidth=2;" edge="1" parent="1" source="2F0ZHAKEK8wXsF_SbkVZ-1780" target="ZTlJS3qnJd74X5BMQNH_-3">
          <mxGeometry relative="1" as="geometry" />
        </mxCell>
        <mxCell id="ZTlJS3qnJd74X5BMQNH_-1" value="" style="group" vertex="1" connectable="0" parent="1">
          <mxGeometry x="410" y="570" width="300" height="200" as="geometry" />
        </mxCell>
        <mxCell id="_siu0kcWxK-6dg5J5kOe-1" value="" style="rounded=1;whiteSpace=wrap;html=1;arcSize=7;fillColor=#f5f5f5;fontColor=#333333;strokeColor=#666666;strokeWidth=2;dashed=1;" parent="ZTlJS3qnJd74X5BMQNH_-1" vertex="1">
          <mxGeometry y="10.93" width="300" height="139.07" as="geometry" />
        </mxCell>
        <mxCell id="_siu0kcWxK-6dg5J5kOe-2" value="Infrastructure" style="rounded=1;whiteSpace=wrap;html=1;fontStyle=1;fillColor=#f5f5f5;fontColor=#333333;strokeColor=#666666;strokeWidth=1;" parent="ZTlJS3qnJd74X5BMQNH_-1" vertex="1">
          <mxGeometry x="17.794117647058826" width="85.73529411764707" height="21.866666666666667" as="geometry" />
        </mxCell>
        <mxCell id="_siu0kcWxK-6dg5J5kOe-4" value="Provider" style="rounded=1;whiteSpace=wrap;html=1;fillColor=#bac8d3;strokeColor=#23445d;strokeWidth=3;fontStyle=1;fontSize=12;" parent="ZTlJS3qnJd74X5BMQNH_-1" vertex="1">
          <mxGeometry x="17.789999999999964" y="40" width="120" height="34" as="geometry" />
        </mxCell>
        <mxCell id="_siu0kcWxK-6dg5J5kOe-5" value="Credential" style="rounded=1;whiteSpace=wrap;html=1;fillColor=#bac8d3;strokeColor=#23445d;strokeWidth=3;fontStyle=1;fontSize=12;" parent="ZTlJS3qnJd74X5BMQNH_-1" vertex="1">
          <mxGeometry x="17.789999999999964" y="90" width="120" height="34" as="geometry" />
        </mxCell>
        <mxCell id="_siu0kcWxK-6dg5J5kOe-6" value="Environment" style="rounded=1;whiteSpace=wrap;html=1;fillColor=#bac8d3;strokeColor=#23445d;strokeWidth=3;fontStyle=1;fontSize=12;" parent="ZTlJS3qnJd74X5BMQNH_-1" vertex="1">
          <mxGeometry x="155" y="40" width="120" height="34" as="geometry" />
        </mxCell>
        <mxCell id="ZTlJS3qnJd74X5BMQNH_-7" value="" style="group;movable=1;resizable=1;rotatable=1;deletable=1;editable=1;locked=0;connectable=1;" vertex="1" connectable="0" parent="1">
          <mxGeometry x="410" y="10" width="300" height="100" as="geometry" />
        </mxCell>
        <mxCell id="ZTlJS3qnJd74X5BMQNH_-8" value="&lt;b&gt;TBD&lt;/b&gt;" style="rounded=1;whiteSpace=wrap;html=1;arcSize=7;fillColor=#f5f5f5;fontColor=#333333;strokeColor=#666666;strokeWidth=2;dashed=1;movable=1;resizable=1;rotatable=1;deletable=1;editable=1;locked=0;connectable=1;" vertex="1" parent="ZTlJS3qnJd74X5BMQNH_-7">
          <mxGeometry y="5.465000000000003" width="300" height="94.535" as="geometry" />
        </mxCell>
        <mxCell id="ZTlJS3qnJd74X5BMQNH_-9" value="Governance &amp;amp; Compliance" style="rounded=1;whiteSpace=wrap;html=1;fontStyle=1;fillColor=#f5f5f5;fontColor=#333333;strokeColor=#666666;strokeWidth=1;movable=1;resizable=1;rotatable=1;deletable=1;editable=1;locked=0;connectable=1;" vertex="1" parent="ZTlJS3qnJd74X5BMQNH_-7">
          <mxGeometry x="20" width="160" height="21.87" as="geometry" />
        </mxCell>
        <mxCell id="ZTlJS3qnJd74X5BMQNH_-12" value="" style="group;movable=1;resizable=1;rotatable=1;deletable=1;editable=1;locked=0;connectable=1;" vertex="1" connectable="0" parent="1">
          <mxGeometry x="770" y="170" width="300" height="100" as="geometry" />
        </mxCell>
        <mxCell id="ZTlJS3qnJd74X5BMQNH_-13" value="&lt;b&gt;TBD&lt;/b&gt;" style="rounded=1;whiteSpace=wrap;html=1;arcSize=7;fillColor=#f5f5f5;fontColor=#333333;strokeColor=#666666;strokeWidth=2;dashed=1;movable=1;resizable=1;rotatable=1;deletable=1;editable=1;locked=0;connectable=1;" vertex="1" parent="ZTlJS3qnJd74X5BMQNH_-12">
          <mxGeometry y="5.465000000000003" width="300" height="94.535" as="geometry" />
        </mxCell>
        <mxCell id="ZTlJS3qnJd74X5BMQNH_-14" value="Developer Services &amp;amp; Enablement" style="rounded=1;whiteSpace=wrap;html=1;fontStyle=1;fillColor=#f5f5f5;fontColor=#333333;strokeColor=#666666;strokeWidth=1;movable=1;resizable=1;rotatable=1;deletable=1;editable=1;locked=0;connectable=1;" vertex="1" parent="ZTlJS3qnJd74X5BMQNH_-12">
          <mxGeometry x="20" width="200" height="21.87" as="geometry" />
        </mxCell>
        <mxCell id="ZTlJS3qnJd74X5BMQNH_-15" value="" style="group;movable=1;resizable=1;rotatable=1;deletable=1;editable=1;locked=0;connectable=1;" vertex="1" connectable="0" parent="1">
          <mxGeometry x="760" y="380" width="300" height="100" as="geometry" />
        </mxCell>
        <mxCell id="ZTlJS3qnJd74X5BMQNH_-16" value="&lt;b&gt;TBD&lt;/b&gt;" style="rounded=1;whiteSpace=wrap;html=1;arcSize=7;fillColor=#f5f5f5;fontColor=#333333;strokeColor=#666666;strokeWidth=2;dashed=1;movable=1;resizable=1;rotatable=1;deletable=1;editable=1;locked=0;connectable=1;" vertex="1" parent="ZTlJS3qnJd74X5BMQNH_-15">
          <mxGeometry y="5.465000000000003" width="300" height="94.535" as="geometry" />
        </mxCell>
        <mxCell id="ZTlJS3qnJd74X5BMQNH_-17" value="Monitoring &amp;amp; Insights" style="rounded=1;whiteSpace=wrap;html=1;fontStyle=1;fillColor=#f5f5f5;fontColor=#333333;strokeColor=#666666;strokeWidth=1;movable=1;resizable=1;rotatable=1;deletable=1;editable=1;locked=0;connectable=1;" vertex="1" parent="ZTlJS3qnJd74X5BMQNH_-15">
          <mxGeometry x="20" width="160" height="21.87" as="geometry" />
        </mxCell>
      </root>
    </mxGraphModel>
  </diagram>
</mxfile>
